<?xml version="1.0" encoding="UTF-8" standalone="no"?>
<!DOCTYPE svg PUBLIC "-//W3C//DTD SVG 1.0//EN" "http://www.w3.org/TR/2001/REC-SVG-20010904/DTD/svg10.dtd">
<!-- Создано Microsoft Visio 11.0, Экспорт SVG, версия 1.0 logo.svg logo -->
<svg xmlns="http://www.w3.org/2000/svg" xmlns:v="http://schemas.microsoft.com/visio/2003/SVGExtensions/" width="8.5in"
		height="11in" viewBox="0 0 612 792" xml:space="preserve" color-interpolation-filters="sRGB" class="st2">
	<v:documentProperties v:langID="1033" v:metric="true" v:viewMarkup="false"/>

	<style type="text/css">
	<![CDATA[
		.st1 {fill:#ffc000;stroke:#ffc000;stroke-linecap:round;stroke-linejoin:round;stroke-width:0.72}
		.st2 {fill:none;fill-rule:evenodd;font-size:12;overflow:visible;stroke-linecap:square;stroke-miterlimit:3}
	]]>
	</style>

	<g v:mID="0" v:index="1" v:groupContext="foregroundPage">
		<title>logo</title>
		<v:pageProperties v:drawingScale="1" v:pageScale="1" v:drawingUnits="19" v:shadowOffsetX="9" v:shadowOffsetY="-9"/>
		<g id="group1-1" transform="translate(127.721,-238.075)" v:mID="1" v:groupContext="group">
			<title>Лист.1</title>
			<g id="shape4-2" v:mID="4" v:groupContext="shape" transform="translate(250.644,-317.522)">
				<title>Лист.4</title>
			</g>
		</g>
		<g id="shape2-4" v:mID="2" v:groupContext="shape" transform="translate(195.75,-239.625)">
			<title>Лист.2</title>
			<path d="M110.25 778.5 L31.5 778.5 L109.12 697.5 L109.12 679.5 L0 792 L110.25 792 L110.25 778.5 Z" class="st1"/>
		</g>
		<g id="shape3-6" v:mID="3" v:groupContext="shape" transform="translate(319.5,-240.75)">
			<title>Лист.3</title>
			<rect x="0" y="712.125" width="12.375" height="79.875" class="st1"/>
		</g>
		<g id="shape7-8" v:mID="7" v:groupContext="shape" transform="translate(319.5,-239.625)">
			<title>Лист.7</title>
			<path d="M0 678.37 L0 711 L12.37 711 L90 792 L109.12 792 L0 678.37 Z" class="st1"/>
		</g>
		<g id="shape8-10" v:mID="8" v:groupContext="shape" transform="translate(331.875,-276.75)">
			<title>Лист.8</title>
			<path d="M0 780.75 L0 792 L41.92 791.86 L31.94 781.46 L0 780.75 Z" class="st1"/>
		</g>
		<g id="shape9-12" v:mID="9" v:groupContext="shape" transform="translate(331.875,-239.625)">
			<title>Лист.9</title>
			<path d="M0 778.34 L64.72 778.54 L77.62 792 L0 790.87 L0 778.34 Z" class="st1"/>
		</g>
		<g id="shape10-14" v:mID="10" v:groupContext="shape" transform="translate(289.688,-353.813)">
			<title>Лист.10</title>
			<path d="M15.75 792 L29.25 792 L29.25 624.37 L39.94 597.37 L0 581.62 L16.31 623.25 L15.75 792 Z" class="st1"/>
		</g>
	</g>
</svg>
